<?xml version="1.0" encoding="utf-8"?>
<!-- Generator: Adobe Illustrator 16.0.0, SVG Export Plug-In . SVG Version: 6.00 Build 0)  -->
<!DOCTYPE svg PUBLIC "-//W3C//DTD SVG 1.1//EN" "http://www.w3.org/Graphics/SVG/1.1/DTD/svg11.dtd">
<svg version="1.1" id="Layer_1" xmlns="http://www.w3.org/2000/svg" xmlns:xlink="http://www.w3.org/1999/xlink" x="0px" y="0px"
	 width="1224px" height="792px" viewBox="0 0 1224 792" enable-background="new 0 0 1224 792" xml:space="preserve">
<path d="M748.695,311.212c-10.059,4.461-20.868,7.477-32.215,8.832c11.581-6.941,20.475-17.934,24.662-31.031
	c-10.837,6.428-22.841,11.096-35.617,13.611c-10.231-10.901-24.809-17.713-40.94-17.713c-30.978,0-56.091,25.113-56.091,56.088
	c0,4.396,0.496,8.677,1.452,12.782c-46.615-2.339-87.944-24.669-115.608-58.604c-4.828,8.284-7.594,17.919-7.594,28.198
	c0,19.459,9.902,36.627,24.952,46.686c-9.194-0.291-17.843-2.814-25.405-7.016c-0.004,0.234-0.005,0.469-0.005,0.705
	c0,27.176,19.334,49.846,44.993,54.999c-4.707,1.281-9.662,1.967-14.777,1.967c-3.614,0-7.128-0.352-10.553-1.006
	c7.138,22.283,27.852,38.5,52.396,38.953c-19.196,15.043-43.381,24.01-69.659,24.01c-4.527,0-8.992-0.266-13.38-0.783
	c24.822,15.914,54.305,25.199,85.979,25.199c103.169,0,159.585-85.467,159.585-159.586c0-2.432-0.055-4.851-0.162-7.256
	C731.666,332.339,741.175,322.46,748.695,311.212z"/>
</svg>
